<?xml version="1.0" encoding="UTF-8" standalone="no"?>
<!-- Created with Inkscape (http://www.inkscape.org/) -->

<svg
   version="1.1"
   id="svg2"
   width="1122.5601"
   height="793.59998"
   viewBox="0 0 1122.5601 793.59998"
   sodipodi:docname="mask.svg"
   inkscape:version="1.2.2 (b0a8486541, 2022-12-01)"
   xmlns:inkscape="http://www.inkscape.org/namespaces/inkscape"
   xmlns:sodipodi="http://sodipodi.sourceforge.net/DTD/sodipodi-0.dtd"
   xmlns="http://www.w3.org/2000/svg"
   xmlns:svg="http://www.w3.org/2000/svg">
  <defs
     id="defs6" />
  <sodipodi:namedview
     id="namedview4"
     pagecolor="#ffffff"
     bordercolor="#000000"
     borderopacity="0.25"
     inkscape:showpageshadow="2"
     inkscape:pageopacity="0.0"
     inkscape:pagecheckerboard="0"
     inkscape:deskcolor="#d1d1d1"
     showgrid="false"
     inkscape:zoom="0.98538309"
     inkscape:cx="563.23272"
     inkscape:cy="396.79999"
     inkscape:window-width="2560"
     inkscape:window-height="1011"
     inkscape:window-x="0"
     inkscape:window-y="0"
     inkscape:window-maximized="1"
     inkscape:current-layer="g8" />
  <g
     inkscape:groupmode="layer"
     inkscape:label="Image"
     id="g8">
    <path
       id="path293"
       style="fill:#000000;fill-opacity:0.415594;stroke:none"
       d="m 554.31836,175.83984 c -1.32582,1.28746 -3.03067,2.35028 -3.64648,4.18946 -0.97692,2.42261 -1.9457,4.89817 -2.12785,7.53313 0.0701,0.91729 -0.24327,0.56419 -0.55965,-0.037 -1.44397,-2.40771 -2.57643,-4.98844 -3.74551,-7.53485 -0.42452,-1.17602 -0.87772,-2.44641 -2.02793,-3.10382 -2.72415,-1.73964 -6.72109,0.0187 -7.55319,3.07133 -0.7172,2.59448 -0.17478,5.31925 0.21938,7.92311 0.68835,3.63817 1.6718,7.22775 2.93165,10.70884 1.92955,4.84732 5.3665,8.86545 8.65493,12.83828 1.35867,1.66809 3.78167,2.73207 5.84488,1.7475 0.6093,-0.29282 1.15801,-0.71154 1.58789,-1.23437 1.03989,1.63663 1.98271,3.64636 3.97752,4.27625 1.98838,0.78343 4.36944,-0.28572 5.23383,-2.20815 0.96053,-2.10389 0.60907,-4.49159 0.69686,-6.73412 -0.0502,-0.78161 0.45111,0.69489 0.62717,0.95115 0.74296,1.64856 1.44374,3.37376 1.66775,5.17385 -0.21105,1.60313 -0.85086,3.11422 -1.18966,4.6932 -0.18486,0.68459 -0.35384,1.37395 -0.52909,2.06071 -1.75402,-0.75991 -3.5858,-1.33599 -5.27231,-2.25215 -3.09722,-1.57331 -6.31516,-3.19051 -9.85391,-3.35956 -3.87472,-0.36718 -7.86131,-0.20299 -11.6049,0.91745 -3.38966,1.29007 -6.38967,3.42519 -9.16927,5.71965 -1.76689,1.57925 -3.507,3.19904 -5.1582,4.89648 -1.52063,1.91638 -1.07243,5.12222 1.11718,6.3418 1.67456,1.06624 3.76425,0.61702 5.48334,-0.0898 0.55367,-0.38235 0.57907,0.49149 0.85665,0.81311 0.70489,1.44103 1.90682,2.6352 2.26583,4.22959 0.7463,2.05092 2.2918,3.68285 3.15004,5.67993 -2.26752,0.97039 -3.2228,3.77317 -2.57776,6.05506 0.41163,1.63869 1.25152,3.12504 1.84143,4.7008 0.42426,0.96274 1.25808,1.6769 1.54305,2.71107 1.12869,2.25978 2.52195,4.38508 3.8313,6.54497 1.85418,2.92799 3.70917,5.86543 5.75143,8.6649 1.52234,1.89792 3.40447,3.59495 5.69649,4.49117 -0.0415,0.66876 -0.35284,1.22278 -0.76064,1.73044 -1.66422,2.77609 0.28834,6.85165 3.49819,7.28838 1.73685,0.3318 3.45953,-0.67333 4.33472,-2.15163 0.79062,-1.25775 1.20765,-2.70494 1.61328,-4.1211 2.91582,-0.70086 5.38857,-2.50643 7.97929,-3.93361 3.36168,-1.96259 6.84977,-3.86624 9.53081,-6.74899 2.83811,-2.76659 5.19634,-5.97472 7.3641,-9.2778 2.34635,-2.91323 5.18329,-5.40647 7.41305,-8.42027 1.16797,-1.4563 2.73906,-2.83515 2.86704,-4.83026 0.18111,-2.08867 -1.38175,-4.1308 -3.46289,-4.45703 -1.65148,-0.38415 -3.34513,0.3551 -4.80664,0.90429 0.97109,-1.53485 1.99285,-3.04244 3.29963,-4.31751 1.6582,-1.79481 3.55498,-3.41007 4.92889,-5.44421 0.73339,-1.37902 0.3832,-2.99187 0.67734,-4.47447 0.20109,-0.72006 -0.95497,-0.51517 -1.40453,-0.79177 -1.0511,-0.0938 -0.0468,-0.4391 0.39471,-0.69541 1.50863,-0.82324 3.4234,-1.08901 4.48482,-2.57936 1.16162,-1.48526 1.13357,-3.73877 -0.084,-5.18555 2.9291,-1.87712 5.85143,-3.91633 8.04972,-6.64621 1.81213,-2.54865 3.68352,-5.10207 4.9952,-7.95145 0.76655,-2.22608 0.75571,-4.63175 0.68359,-6.95703 -0.0919,-1.89599 -1.28211,-3.89777 -3.26219,-4.25435 -2.20429,-0.54526 -4.29242,0.98004 -5.57644,2.64191 -0.94244,1.25953 -1.84065,2.5576 -3.02751,3.60811 -3.20355,3.1164 -6.80146,5.86129 -10.78847,7.89963 -3.45434,1.83538 -7.00139,3.49619 -10.39617,5.44259 2.31233,-2.23131 5.00216,-4.04914 7.17188,-6.42773 1.83848,-1.21991 4.14983,-2.18956 5.01953,-4.38477 0.24293,-0.48127 0.97749,-0.54512 1.36695,-0.94215 1.69041,-1.15744 3.22215,-3.08896 2.85655,-5.26096 -0.25363,-2.06249 -2.21506,-3.5545 -4.23351,-3.59533 -1.84368,-0.0539 -3.69975,0.23223 -5.46265,0.77305 1.41703,-2.22403 2.64322,-4.58466 3.59961,-7.04297 0.58249,-1.47645 0.83881,-3.23895 -0.0708,-4.64433 -0.82809,-1.43367 -2.52789,-1.92521 -3.97988,-2.47643 -0.8893,-0.26491 -1.84909,-0.45058 -2.76961,-0.31674 -1.37105,-1.45167 -3.36684,-2.1505 -5.29102,-2.47265 -2.47416,-0.23254 -4.75808,2.12162 -4.46134,4.58853 0.0251,1.06965 0.29611,2.11102 0.50041,3.15561 -1.19649,2.60686 -1.7679,5.44882 -2.98633,8.04883 -0.44151,1.06057 -0.88837,2.12556 -1.15625,3.24609 -0.77471,-2.29171 -1.48085,-4.63345 -2.59375,-6.78711 -1.16096,-1.99345 -2.91867,-3.95332 -5.2886,-4.38023 -1.4077,-0.21732 -2.83799,0.31735 -3.94187,1.17711 -0.20457,-2.27739 -0.20343,-4.62561 -1.07617,-6.77735 -0.16492,-0.99758 -0.65019,-1.88923 -1.3928,-2.57405 -0.40813,-0.36382 -0.78082,-1.34348 -1.25708,-0.52326 -0.35369,0.3202 -0.70737,0.64039 -1.06106,0.96059 z m 28.99414,25.90821 c -0.0316,0.36229 -0.88953,1.19233 -0.80469,0.48047 0.15684,-0.17203 0.65987,-0.75729 0.80469,-0.48047 z m -40.07227,28.8789 c 1.252,0.28169 2.52383,0.46804 3.79883,0.60938 0.0187,1.17831 0.0871,2.36014 0.28321,3.52344 -1.44758,-1.44422 -2.95545,-2.8253 -4.45118,-4.21875 0.12305,0.0286 0.2461,0.0573 0.36914,0.0859 z m 18.36719,1.31641 c -0.25628,1.17398 -0.51096,2.3495 -0.76953,3.52344 -0.35576,-1.31268 -0.70599,-2.62684 -1.05469,-3.94141 0.70002,-0.17381 1.38531,-0.40117 2.0625,-0.64844 -0.0794,0.35547 -0.15885,0.71094 -0.23828,1.06641 z m 8.18164,5.84766 c 1.07999,0.40888 2.24577,0.5172 3.39258,0.5 -1.53777,1.4957 -3.03392,3.03371 -4.5,4.5996 0.36652,-1.70185 0.69995,-3.41135 1.05859,-5.11523 z m -14.46679,10.88281 c 0.65838,0.52592 1.44948,0.88337 2.27929,1.02929 -0.96699,3.73285 -2.01259,7.53681 -2.79883,11.25977 -0.66865,-1.35544 -1.35756,-2.70003 -2.04687,-4.04492 2.00148,-0.93936 2.72599,-3.31823 2.64323,-5.38437 -0.003,-0.9791 -0.0424,-1.95969 -0.16276,-2.93204 l 0.0765,0.0644 z m 10.36718,7.73828 c 0.75434,-0.0751 -0.50008,0.96361 -0.17968,0.35547 0.0761,-0.0826 -0.0424,-0.54521 0.17968,-0.35547 z m -12.50195,50.54883 c -1.73821,0.0251 -3.31879,1.17453 -3.96675,2.77481 -0.79964,1.96857 -0.77607,4.14691 -0.9757,6.234 -0.087,2.18493 -0.43628,4.34117 -0.7481,6.50019 -0.79943,6.43463 -1.37582,12.8956 -1.98328,19.35037 -0.11499,1.9774 0.8821,4.11127 2.80664,4.85157 2.52304,1.13731 5.56538,-0.57531 6.47461,-3.06055 0.88349,-2.17583 0.79996,-4.57633 1.04676,-6.87489 0.17911,-2.56483 0.38115,-5.24297 0.61535,-7.74621 0.16346,-1.60027 0.32816,-3.0656 0.55907,-4.69116 0.51383,-4.42946 0.8433,-8.91207 0.53078,-13.36743 -0.23046,-1.86218 -1.63857,-3.52814 -3.5039,-3.89817 -0.27727,-0.0533 -0.57268,-0.10424 -0.85548,-0.0725 z" />
  </g>
</svg>
